<?xml version="1.0" encoding="UTF-8" standalone="no"?>
<!-- Created with Inkscape (http://www.inkscape.org/) -->

<svg
   xmlns:dc="http://purl.org/dc/elements/1.1/"
   xmlns:cc="http://creativecommons.org/ns#"
   xmlns:rdf="http://www.w3.org/1999/02/22-rdf-syntax-ns#"
   xmlns:svg="http://www.w3.org/2000/svg"
   xmlns="http://www.w3.org/2000/svg"
   xmlns:sodipodi="http://sodipodi.sourceforge.net/DTD/sodipodi-0.dtd"
   xmlns:inkscape="http://www.inkscape.org/namespaces/inkscape"
   width="210mm"
   height="297mm"
   viewBox="0 0 744.09448819 1052.3622047"
   id="svg4225"
   version="1.1"
   inkscape:version="0.91 r13725"
   sodipodi:docname="awale.svg">
  <defs
     id="defs4227" />
  <sodipodi:namedview
     id="base"
     pagecolor="#ffffff"
     bordercolor="#666666"
     borderopacity="1.0"
     inkscape:pageopacity="0.0"
     inkscape:pageshadow="2"
     inkscape:zoom="0.35355339"
     inkscape:cx="-1407.3988"
     inkscape:cy="323.33151"
     inkscape:document-units="px"
     inkscape:current-layer="layer1"
     showgrid="false"
     showborder="false"
     inkscape:snap-center="false"
     inkscape:snap-object-midpoints="false"
     inkscape:snap-others="true"
     inkscape:window-width="1920"
     inkscape:window-height="1000"
     inkscape:window-x="0"
     inkscape:window-y="27"
     inkscape:window-maximized="1" />
  <metadata
     id="metadata4230">
    <rdf:RDF>
      <cc:Work
         rdf:about="">
        <dc:format>image/svg+xml</dc:format>
        <dc:type
           rdf:resource="http://purl.org/dc/dcmitype/StillImage" />
        <dc:title />
      </cc:Work>
    </rdf:RDF>
  </metadata>
  <g
     inkscape:label="Layer 1"
     inkscape:groupmode="layer"
     id="layer1">
    <rect
       style="opacity:0.5;fill:none;fill-opacity:1;fill-rule:nonzero;stroke:#000000;stroke-width:50;stroke-linecap:round;stroke-linejoin:round;stroke-miterlimit:4;stroke-dasharray:none;stroke-opacity:1"
       id="rect4799"
       width="2018"
       height="1000.7935"
       x="-2099.1428"
       y="-221.4631" />
    <ellipse
       style="opacity:0.5;fill:none;fill-opacity:1;fill-rule:nonzero;stroke:#000000;stroke-width:10;stroke-linecap:round;stroke-linejoin:round;stroke-miterlimit:4;stroke-dasharray:none;stroke-opacity:1"
       id="path4801"
       cx="-1920.8468"
       cy="-55.298859"
       rx="78.357224"
       ry="78.754936" />
    <ellipse
       cy="-55.298859"
       cx="-1715.9125"
       id="circle4803"
       style="opacity:0.5;fill:none;fill-opacity:1;fill-rule:nonzero;stroke:#000000;stroke-width:10;stroke-linecap:round;stroke-linejoin:round;stroke-miterlimit:4;stroke-dasharray:none;stroke-opacity:1"
       rx="78.357224"
       ry="78.754936" />
    <ellipse
       style="opacity:0.5;fill:none;fill-opacity:1;fill-rule:nonzero;stroke:#000000;stroke-width:10;stroke-linecap:round;stroke-linejoin:round;stroke-miterlimit:4;stroke-dasharray:none;stroke-opacity:1"
       id="circle4805"
       cx="-1510.9781"
       cy="-55.298859"
       rx="78.357224"
       ry="78.754936" />
    <ellipse
       cy="-55.298859"
       cx="-1286.756"
       id="circle4807"
       style="opacity:0.5;fill:none;fill-opacity:1;fill-rule:nonzero;stroke:#000000;stroke-width:10;stroke-linecap:round;stroke-linejoin:round;stroke-miterlimit:4;stroke-dasharray:none;stroke-opacity:1"
       rx="78.357224"
       ry="78.754936" />
    <ellipse
       style="opacity:0.5;fill:none;fill-opacity:1;fill-rule:nonzero;stroke:#000000;stroke-width:10;stroke-linecap:round;stroke-linejoin:round;stroke-miterlimit:4;stroke-dasharray:none;stroke-opacity:1"
       id="circle4809"
       cx="-960.09534"
       cy="-55.298859"
       rx="78.357224"
       ry="78.754936" />
    <ellipse
       cy="-55.298859"
       cx="-715.37964"
       id="circle4811"
       style="opacity:0.5;fill:none;fill-opacity:1;fill-rule:nonzero;stroke:#000000;stroke-width:10;stroke-linecap:round;stroke-linejoin:round;stroke-miterlimit:4;stroke-dasharray:none;stroke-opacity:1"
       rx="78.357224"
       ry="78.754936" />
    <ellipse
       style="opacity:0.5;fill:none;fill-opacity:1;fill-rule:nonzero;stroke:#000000;stroke-width:10;stroke-linecap:round;stroke-linejoin:round;stroke-miterlimit:4;stroke-dasharray:none;stroke-opacity:1"
       id="circle4813"
       cx="-494.77393"
       cy="-55.298859"
       rx="78.357224"
       ry="78.754936" />
    <ellipse
       cy="-55.298859"
       cx="-282.60666"
       id="circle4815"
       style="opacity:0.5;fill:none;fill-opacity:1;fill-rule:nonzero;stroke:#000000;stroke-width:10;stroke-linecap:round;stroke-linejoin:round;stroke-miterlimit:4;stroke-dasharray:none;stroke-opacity:1"
       rx="78.357224"
       ry="78.754936" />
    <ellipse
       cy="145.82913"
       cx="-1920.8468"
       id="circle4817"
       style="opacity:0.5;fill:none;fill-opacity:1;fill-rule:nonzero;stroke:#000000;stroke-width:10;stroke-linecap:round;stroke-linejoin:round;stroke-miterlimit:4;stroke-dasharray:none;stroke-opacity:1"
       rx="78.357224"
       ry="78.754936" />
    <ellipse
       style="opacity:0.5;fill:none;fill-opacity:1;fill-rule:nonzero;stroke:#000000;stroke-width:10;stroke-linecap:round;stroke-linejoin:round;stroke-miterlimit:4;stroke-dasharray:none;stroke-opacity:1"
       id="circle4819"
       cx="-1715.9125"
       cy="145.82913"
       rx="78.357224"
       ry="78.754936" />
    <ellipse
       cy="145.82913"
       cx="-1510.9781"
       id="circle4821"
       style="opacity:0.5;fill:none;fill-opacity:1;fill-rule:nonzero;stroke:#000000;stroke-width:10;stroke-linecap:round;stroke-linejoin:round;stroke-miterlimit:4;stroke-dasharray:none;stroke-opacity:1"
       rx="78.357224"
       ry="78.754936" />
    <ellipse
       cy="145.82913"
       cx="-960.09534"
       id="circle4825"
       style="opacity:0.5;fill:none;fill-opacity:1;fill-rule:nonzero;stroke:#000000;stroke-width:10;stroke-linecap:round;stroke-linejoin:round;stroke-miterlimit:4;stroke-dasharray:none;stroke-opacity:1"
       rx="78.357224"
       ry="78.754936" />
    <ellipse
       style="opacity:0.5;fill:none;fill-opacity:1;fill-rule:nonzero;stroke:#000000;stroke-width:10;stroke-linecap:round;stroke-linejoin:round;stroke-miterlimit:4;stroke-dasharray:none;stroke-opacity:1"
       id="circle4827"
       cx="-715.37964"
       cy="145.82913"
       rx="78.357224"
       ry="78.754936" />
    <ellipse
       cy="145.82913"
       cx="-494.77393"
       id="circle4829"
       style="opacity:0.5;fill:none;fill-opacity:1;fill-rule:nonzero;stroke:#000000;stroke-width:10;stroke-linecap:round;stroke-linejoin:round;stroke-miterlimit:4;stroke-dasharray:none;stroke-opacity:1"
       rx="78.357224"
       ry="78.754936" />
    <ellipse
       style="opacity:0.5;fill:none;fill-opacity:1;fill-rule:nonzero;stroke:#000000;stroke-width:10;stroke-linecap:round;stroke-linejoin:round;stroke-miterlimit:4;stroke-dasharray:none;stroke-opacity:1"
       id="circle4831"
       cx="-282.60666"
       cy="145.82913"
       rx="78.357224"
       ry="78.754936" />
    <ellipse
       style="opacity:0.5;fill:none;fill-opacity:1;fill-rule:nonzero;stroke:#000000;stroke-width:10;stroke-linecap:round;stroke-linejoin:round;stroke-miterlimit:4;stroke-dasharray:none;stroke-opacity:1"
       id="circle4833"
       cx="-1920.8468"
       cy="363.91971"
       rx="78.357224"
       ry="78.754936" />
    <ellipse
       cy="363.91971"
       cx="-1715.9125"
       id="circle4835"
       style="opacity:0.5;fill:none;fill-opacity:1;fill-rule:nonzero;stroke:#000000;stroke-width:10;stroke-linecap:round;stroke-linejoin:round;stroke-miterlimit:4;stroke-dasharray:none;stroke-opacity:1"
       rx="78.357224"
       ry="78.754936" />
    <ellipse
       style="opacity:0.5;fill:none;fill-opacity:1;fill-rule:nonzero;stroke:#000000;stroke-width:10;stroke-linecap:round;stroke-linejoin:round;stroke-miterlimit:4;stroke-dasharray:none;stroke-opacity:1"
       id="circle4837"
       cx="-1510.9781"
       cy="363.91971"
       rx="78.357224"
       ry="78.754936" />
    <ellipse
       cy="363.91971"
       cx="-1286.756"
       id="circle4839"
       style="opacity:0.5;fill:none;fill-opacity:1;fill-rule:nonzero;stroke:#000000;stroke-width:10;stroke-linecap:round;stroke-linejoin:round;stroke-miterlimit:4;stroke-dasharray:none;stroke-opacity:1"
       rx="78.357224"
       ry="78.754936" />
    <ellipse
       cy="582.01031"
       cx="-1920.8468"
       id="circle4849"
       style="opacity:0.5;fill:none;fill-opacity:1;fill-rule:nonzero;stroke:#000000;stroke-width:10;stroke-linecap:round;stroke-linejoin:round;stroke-miterlimit:4;stroke-dasharray:none;stroke-opacity:1"
       rx="78.357224"
       ry="78.754936" />
    <ellipse
       style="opacity:0.5;fill:none;fill-opacity:1;fill-rule:nonzero;stroke:#000000;stroke-width:10;stroke-linecap:round;stroke-linejoin:round;stroke-miterlimit:4;stroke-dasharray:none;stroke-opacity:1"
       id="circle4851"
       cx="-1715.9125"
       cy="582.01031"
       rx="78.357224"
       ry="78.754936" />
    <ellipse
       cy="582.01031"
       cx="-1510.9781"
       id="circle4853"
       style="opacity:0.5;fill:none;fill-opacity:1;fill-rule:nonzero;stroke:#000000;stroke-width:10;stroke-linecap:round;stroke-linejoin:round;stroke-miterlimit:4;stroke-dasharray:none;stroke-opacity:1"
       rx="78.357224"
       ry="78.754936" />
    <ellipse
       style="opacity:0.5;fill:none;fill-opacity:1;fill-rule:nonzero;stroke:#000000;stroke-width:10;stroke-linecap:round;stroke-linejoin:round;stroke-miterlimit:4;stroke-dasharray:none;stroke-opacity:1"
       id="circle4855"
       cx="-1286.756"
       cy="582.01031"
       rx="78.357224"
       ry="78.754936" />
    <rect
       style="opacity:0.5;fill:none;fill-opacity:1;fill-rule:nonzero;stroke:#000000;stroke-width:10;stroke-linecap:round;stroke-linejoin:round;stroke-miterlimit:4;stroke-dasharray:none;stroke-opacity:1"
       id="rect4868"
       width="156.71445"
       height="157.50987"
       x="-1365.1132"
       y="67.074196" />
    <g
       id="g4883">
      <path
         id="circle4843"
         d="m -637.02242,363.91971 a 78.357224,78.754936 0 0 1 -78.35722,78.75493 78.357224,78.754936 0 0 1 -78.35722,-78.75493 78.357224,78.754936 0 0 1 78.35722,-78.75494 78.357224,78.754936 0 0 1 78.35722,78.75494 z"
         style="opacity:0.5;fill:none;fill-opacity:1;fill-rule:nonzero;stroke:#000000;stroke-width:10;stroke-linecap:round;stroke-linejoin:round;stroke-miterlimit:4;stroke-dasharray:none;stroke-opacity:1" />
      <path
         id="circle4845"
         d="m -416.4167,363.91971 a 78.357224,78.754936 0 0 1 -78.35723,78.75493 78.357224,78.754936 0 0 1 -78.35722,-78.75493 78.357224,78.754936 0 0 1 78.35722,-78.75494 78.357224,78.754936 0 0 1 78.35723,78.75494 z"
         style="opacity:0.5;fill:none;fill-opacity:1;fill-rule:nonzero;stroke:#000000;stroke-width:10;stroke-linecap:round;stroke-linejoin:round;stroke-miterlimit:4;stroke-dasharray:none;stroke-opacity:1" />
      <path
         id="circle4847"
         d="m -204.24944,363.91971 a 78.357224,78.754936 0 0 1 -78.35722,78.75493 78.357224,78.754936 0 0 1 -78.35722,-78.75493 78.357224,78.754936 0 0 1 78.35722,-78.75494 78.357224,78.754936 0 0 1 78.35722,78.75494 z"
         style="opacity:0.5;fill:none;fill-opacity:1;fill-rule:nonzero;stroke:#000000;stroke-width:10;stroke-linecap:round;stroke-linejoin:round;stroke-miterlimit:4;stroke-dasharray:none;stroke-opacity:1" />
      <path
         id="circle4857"
         d="m -881.73811,582.01031 a 78.357224,78.754936 0 0 1 -78.35723,78.75494 78.357224,78.754936 0 0 1 -78.35726,-78.75494 78.357224,78.754936 0 0 1 78.35726,-78.75493 78.357224,78.754936 0 0 1 78.35723,78.75493 z"
         style="opacity:0.5;fill:none;fill-opacity:1;fill-rule:nonzero;stroke:#000000;stroke-width:10;stroke-linecap:round;stroke-linejoin:round;stroke-miterlimit:4;stroke-dasharray:none;stroke-opacity:1" />
      <path
         id="circle4859"
         d="m -637.02242,582.01031 a 78.357224,78.754936 0 0 1 -78.35722,78.75494 78.357224,78.754936 0 0 1 -78.35722,-78.75494 78.357224,78.754936 0 0 1 78.35722,-78.75493 78.357224,78.754936 0 0 1 78.35722,78.75493 z"
         style="opacity:0.5;fill:none;fill-opacity:1;fill-rule:nonzero;stroke:#000000;stroke-width:10;stroke-linecap:round;stroke-linejoin:round;stroke-miterlimit:4;stroke-dasharray:none;stroke-opacity:1" />
      <path
         id="circle4861"
         d="m -416.4167,582.01031 a 78.357224,78.754936 0 0 1 -78.35723,78.75494 78.357224,78.754936 0 0 1 -78.35722,-78.75494 78.357224,78.754936 0 0 1 78.35722,-78.75493 78.357224,78.754936 0 0 1 78.35723,78.75493 z"
         style="opacity:0.5;fill:none;fill-opacity:1;fill-rule:nonzero;stroke:#000000;stroke-width:10;stroke-linecap:round;stroke-linejoin:round;stroke-miterlimit:4;stroke-dasharray:none;stroke-opacity:1" />
      <path
         id="circle4863"
         d="m -204.24944,582.01031 a 78.357224,78.754936 0 0 1 -78.35722,78.75494 78.357224,78.754936 0 0 1 -78.35722,-78.75494 78.357224,78.754936 0 0 1 78.35722,-78.75493 78.357224,78.754936 0 0 1 78.35722,78.75493 z"
         style="opacity:0.5;fill:none;fill-opacity:1;fill-rule:nonzero;stroke:#000000;stroke-width:10;stroke-linecap:round;stroke-linejoin:round;stroke-miterlimit:4;stroke-dasharray:none;stroke-opacity:1" />
      <path
         id="rect4872"
         d="m -1038.4525,285.16476 156.71443,0 0,157.50988 -156.71443,0 z"
         style="opacity:0.5;fill:none;fill-opacity:1;fill-rule:nonzero;stroke:#000000;stroke-width:10;stroke-linecap:round;stroke-linejoin:round;stroke-miterlimit:4;stroke-dasharray:none;stroke-opacity:1" />
    </g>
    <ellipse
       style="fill:#00b100;fill-opacity:1;stroke:none;stroke-opacity:1"
       id="path4167"
       cx="-304.76035"
       cy="-58.898113"
       rx="43.643467"
       ry="39.114731"
       transform="matrix(0.75355342,-0.65738667,0.60862425,0.79345859,0,0)" />
    <circle
       style="fill:#784421;fill-opacity:1;stroke:none;stroke-opacity:1"
       id="path4171"
       cx="-248.15994"
       cy="128.7908"
       r="7.5138164" />
    <path
       style="fill:#c87137;fill-opacity:1;stroke:none;stroke-opacity:1"
       d="m -2073.0164,278.67201 0,-475.17576 982.8784,0 982.87843,0 0,475.17576 0,475.17575 -982.87843,0 -982.8784,0 0,-475.17575 z m 178.4822,383.37389 c 19.3476,-6.17259 38.5252,-22.67414 47.7137,-41.05582 7.7318,-15.46761 9.2767,-22.15849 9.1611,-39.67637 -0.094,-14.19424 -0.6109,-17.60726 -4.0652,-26.82534 -7.159,-19.1044 -17.0422,-31.88735 -32.805,-42.43016 -15.269,-10.21255 -26.8068,-13.49277 -47.166,-13.40937 -13.2159,0.0542 -17.9859,0.67369 -25.4558,3.30636 -25.7847,9.08745 -46.0715,30.0938 -54.105,56.02399 -4.2567,13.73949 -4.2567,34.34376 0,48.08326 5.0646,16.34736 17.0276,33.42597 30.7705,43.92844 6.5494,5.00518 21.0008,11.76725 30.0276,14.05048 11.4294,2.89095 33.6317,1.92622 45.9241,-1.99547 z m 206.0154,-0.53982 c 33.0765,-11.62995 56.6879,-44.73682 56.6879,-79.48526 0,-34.9089 -25.1422,-69.71365 -57.8316,-80.05735 -48.1057,-15.22174 -97.8391,13.89171 -108.3339,63.41762 -9.2164,43.49259 18.7053,87.57944 62.4657,98.63 12.7268,3.21383 33.9657,2.08212 47.0119,-2.50501 z m 196.3831,2.53638 c 28.9849,-6.83405 52.5578,-29.0457 61.5333,-57.98001 4.261,-13.7361 4.2626,-34.337 0,-48.08326 -8.0335,-25.93019 -28.3203,-46.93654 -54.105,-56.02399 -13.0798,-4.60983 -37.429,-4.72282 -51.6775,-0.23985 -27.1912,8.55511 -48.4114,31.60646 -55.8423,60.6613 -3.3046,12.92075 -3.4923,23.1629 -0.6688,36.4909 5.3556,25.28027 22.2393,47.43214 45.0032,59.04541 14.7736,7.53691 38.6507,10.16196 55.7533,6.1295 l -4e-4,0 z m 232.4612,-2.44354 c 13.9289,-5.10753 22.1079,-10.37704 32.6228,-21.01815 10.4229,-10.54788 19.4403,-27.01255 22.235,-40.59834 5.8013,-28.20172 -2.8447,-57.13298 -23.1387,-77.42702 -32.9243,-32.92429 -84.9243,-32.95984 -117.5058,-0.0803 -47.3908,47.82426 -23.4567,128.0137 42.4841,142.33961 10.369,2.25271 32.9657,0.5746 43.3026,-3.21579 z m 326.68331,0 c 21.78364,-7.98774 38.28573,-22.64146 47.69824,-42.35564 6.5858,-13.79371 8.7012,-22.84312 8.7012,-37.22246 0,-14.37935 -2.1154,-23.42876 -8.7012,-37.22247 -12.617,-26.4259 -39.11026,-44.4299 -68.4236,-46.49857 -40.69268,-2.87173 -77.31925,23.42034 -87.53245,62.83442 -2.8528,11.00944 -2.8425,30.79307 0.022,41.89569 5.9721,23.14833 23.0898,44.09838 44.42726,54.37361 15.07567,7.25981 22.5266,8.76292 40.30508,8.1309 10.51085,-0.37367 16.54589,-1.38419 23.50363,-3.93548 l -6e-5,0 z m 244.65895,0 c 13.77852,-5.05239 22.05821,-10.36033 32.41028,-20.77756 15.89731,-15.99749 23.9473,-35.76346 23.9473,-58.80054 0,-23.6353 -8.01746,-42.87634 -24.85297,-59.64405 -32.88568,-32.75331 -84.78053,-32.70981 -117.2913,0.0983 -47.3717,47.80498 -23.4301,128.01947 42.48407,142.33962 10.36899,2.2527 32.9657,0.57459 43.30262,-3.2158 l 0,4e-5 z m 220.61735,0 c 13.86227,-5.08312 22.10345,-10.37124 32.35933,-20.76396 15.96746,-16.18061 23.99822,-35.86225 23.99822,-58.81414 0,-23.6353 -8.01746,-42.87634 -24.85297,-59.64405 -32.8857,-32.75331 -84.78055,-32.70981 -117.29134,0.0983 -47.37163,47.80498 -23.43012,128.01947 42.48411,142.33962 10.36901,2.2527 32.96574,0.57459 43.30265,-3.2158 l 0,4e-5 z m 212.13204,0 c 13.77854,-5.05239 22.05819,-10.36033 32.41024,-20.77756 32.56424,-32.76934 32.25397,-85.08894 -0.70188,-118.34626 -32.51079,-32.80814 -84.40564,-32.85164 -117.29133,-0.0983 -16.71162,16.64428 -24.82935,35.97133 -24.8739,59.22089 -0.0283,14.71526 2.03392,23.72451 8.56038,37.398 11.09747,23.25012 32.78981,40.21301 58.59383,45.81906 10.36902,2.2527 32.96575,0.5746 43.30266,-3.21579 l 0,-5e-5 z M -1904.1417,446.25756 c 45.7657,-9.69544 74.8863,-54.46675 65.1912,-100.22783 -5.2119,-24.60012 -22.3372,-46.50797 -44.7039,-57.1883 -13.9026,-6.63864 -22.9281,-8.75521 -37.3341,-8.75521 -14.5613,0 -23.545,2.13015 -37.3217,8.8495 -20.6983,10.09526 -36.4037,29.13039 -43.4555,52.66879 -3.9369,13.1407 -3.3712,35.24097 1.239,48.41225 5.0984,14.56571 10.0157,22.30336 21.4394,33.73599 20.0936,20.10917 47.4615,28.32728 74.9456,22.50481 z m 205.1848,-0.007 c 32.1295,-6.74568 58.329,-33.16331 65.2118,-65.75471 5.9018,-27.94661 -5.1396,-60.84747 -26.8622,-80.04324 -8.4312,-7.45047 -26.6194,-16.61517 -37.3586,-18.8243 -4.1218,-0.84789 -12.2045,-1.54162 -17.9616,-1.54162 -14.335,0 -23.4664,2.12249 -36.7695,8.54677 -13.5756,6.55583 -22.6609,14.15324 -30.9403,25.87342 -24.5182,34.70746 -20.9111,78.74102 8.8916,108.54373 20.8866,20.8866 47.7053,29.09616 75.7888,23.19995 z m 205.0609,0 c 14.4255,-3.02865 29.0169,-10.75035 40.0679,-21.20371 10.8993,-10.30987 17.3142,-20.25694 22.4977,-34.88541 4.6872,-13.22829 5.2484,-35.1807 1.2411,-48.55646 -7.0518,-23.5384 -22.7572,-42.57353 -43.4555,-52.66879 -13.7767,-6.71935 -22.7603,-8.8495 -37.3217,-8.8495 -14.2966,0 -23.4384,2.11564 -36.7696,8.50937 -41.7786,20.03728 -58.9949,70.61608 -38.2613,112.40589 17.2444,34.7571 54.5595,53.10965 92.0014,45.24861 z m 234.1503,-2.66565 c 33.965,-11.81185 56.5156,-43.48912 56.4497,-79.29609 -0.044,-24.10832 -8.0852,-43.2638 -25.2578,-60.17078 -16.7659,-16.5065 -35.0589,-24.03135 -58.4204,-24.03135 -23.6914,0 -41.0488,7.34356 -58.459,24.73276 -17.0857,17.06506 -24.7191,35.12611 -24.7191,58.48681 0,15.34143 2.0141,24.14297 8.7552,38.2602 10.5103,22.01057 32.242,39.20728 56.5359,44.73787 13.0574,2.97258 32.038,1.82849 45.1155,-2.71942 z m 381.57815,2.86658 c 1.15796,-1.39526 1.49825,-24.50512 1.23382,-83.79215 l -0.36512,-81.86554 -82.7315,0 -82.73145,0 -0.3652,81.86554 c -0.2644,59.28703 0.076,82.39689 1.2339,83.79215 2.3739,2.86043 161.3516,2.86043 163.72555,0 z m 180.29124,-0.18117 c 24.60012,-5.2119 46.50797,-22.33719 57.18826,-44.70386 6.69729,-14.02536 8.76275,-22.9541 8.73432,-37.75722 -0.0453,-23.79027 -7.63378,-41.9008 -24.71621,-58.98979 -17.44401,-17.45076 -34.72732,-24.73276 -58.70146,-24.73276 -23.97414,0 -41.25745,7.282 -58.70147,24.73276 -17.02917,17.03573 -24.73713,35.25992 -24.73713,58.48681 0,15.34143 2.01408,24.14297 8.75521,38.2602 16.23343,33.99597 54.69012,52.64634 92.17848,44.70386 z m 220.61732,0 c 24.46278,-5.18281 46.55916,-22.44582 57.16902,-44.66405 6.71624,-14.06438 8.78198,-22.98436 8.75356,-37.79703 -0.0453,-23.78266 -7.63124,-41.89124 -24.71621,-59.00348 -17.27745,-17.30497 -34.88399,-24.71907 -58.70146,-24.71907 -23.97418,0 -41.25742,7.282 -58.70146,24.73276 -17.02911,17.03573 -24.73714,35.25992 -24.73714,58.48681 0,15.34143 2.01412,24.14297 8.75525,38.2602 16.23333,33.99597 54.69004,52.64634 92.17844,44.70386 z m 212.13204,0 c 24.6001,-5.2119 46.50796,-22.33719 57.18825,-44.70386 6.74113,-14.11723 8.75525,-22.91877 8.75525,-38.2602 0,-23.22689 -7.70803,-41.45108 -24.73714,-58.48681 -17.44404,-17.45076 -34.72729,-24.73276 -58.70146,-24.73276 -23.81748,0 -41.42401,7.4141 -58.70146,24.71907 -17.08497,17.11224 -24.67053,35.22082 -24.71621,59.00348 -0.0283,14.80312 2.03703,23.73186 8.73433,37.75722 16.23333,33.99597 54.69004,52.64634 92.17844,44.70386 z M -1900.6456,227.56182 c 29.6846,-7.08363 55.2848,-33.71033 61.6753,-64.14822 11.0289,-52.53017 -28.1164,-101.193201 -81.5306,-101.353842 -15.7619,-0.04738 -25.653,2.360648 -39.523,9.622182 -41.5067,21.730381 -56.9191,75.04864 -33.5677,116.12576 12.0794,21.24868 34.5897,36.83392 59.6814,41.32103 8.2274,1.47129 23.5591,0.7491 33.2646,-1.56691 z m 205.061,0.008 c 21.5906,-5.12442 44.4496,-23.48179 54.3936,-43.68188 15.8373,-32.17162 10.6715,-69.01972 -13.3626,-95.316849 -9.4032,-10.288587 -20.6111,-17.480598 -34.936,-22.418184 -10.0951,-3.479658 -14.0497,-4.091687 -26.4379,-4.091687 -12.3882,0 -16.3428,0.612029 -26.4379,4.091687 -33.1589,11.429363 -54.582,39.375003 -57.1512,74.551473 -3.5806,49.02331 39.0457,92.32998 87.6685,89.06783 5.355,-0.35926 12.6735,-1.35035 16.2635,-2.20239 z m 210.6869,-1.97296 c 28.6024,-9.08444 50.0143,-33.56857 56.1489,-64.20517 2.9308,-14.63694 2.0317,-27.17332 -3.038,-42.35745 -20.2869,-60.760935 -98.1972,-77.130923 -141.1569,-29.658914 -23.453,25.916344 -28.3543,62.452224 -12.6831,94.543964 10.2073,20.90283 33.7514,39.38359 55.6684,43.6964 4.278,0.84183 9.051,1.81813 10.6066,2.16955 5.8688,1.32581 24.0522,-0.88464 34.4541,-4.18838 z m 279.9256,3.29434 c 1.2807,-1.28075 1.697,-21.73641 1.697,-83.38885 0,-79.318881 -0.079,-81.734302 -2.7354,-83.155756 -3.7705,-2.017899 -157.6358,-2.017899 -161.4063,0 -2.656,1.421454 -2.7355,3.836875 -2.7355,83.155756 0,61.65244 0.4163,82.1081 1.6971,83.38885 2.4496,2.44962 161.0334,2.44962 163.4831,0 z m 267.56917,-2.02889 c 27.89937,-7.8359 50.38976,-30.68976 58.02466,-58.96238 2.5692,-9.51399 3.00082,-14.05878 2.44069,-25.70002 -1.10417,-22.94818 -8.77331,-40.64105 -24.27756,-56.008926 -37.96118,-37.627259 -100.29416,-30.765961 -129.38416,14.241926 -9.4494,14.62005 -12.1625,24.72578 -12.1625,45.30253 0,21.36734 2.8644,31.30038 13.6966,47.49584 19.8822,29.72643 57.03305,43.35713 91.66227,33.63103 z m 244.65895,0 c 25.86504,-7.26454 47.93434,-28.22822 56.83484,-53.98749 2.73721,-7.9219 3.26923,-12.3386 3.26923,-27.13938 0,-20.41909 -2.72363,-30.71114 -11.86002,-44.81705 -33.71472,-52.053169 -108.02822,-52.053169 -141.74299,0 -9.13638,14.10591 -11.85997,24.39796 -11.85997,44.81705 0,14.80078 0.53204,19.21748 3.26925,27.13938 10.1552,29.3907 36.63002,51.56748 67.30299,56.37674 9.29681,1.45765 24.90742,0.38548 34.78667,-2.38925 z m 220.61731,0 c 25.54409,-7.1744 47.74329,-28.05266 56.60249,-53.23464 4.82529,-13.71556 5.42209,-35.23352 1.39144,-50.16585 -12.56175,-46.536834 -62.83789,-72.984763 -108.33936,-56.992256 -23.60507,8.296498 -43.53812,28.376803 -51.74424,52.126496 -2.73721,7.9219 -3.26924,12.3386 -3.26924,27.13938 0,14.80078 0.53203,19.21748 3.26924,27.13938 10.1887,29.48774 36.52871,51.55161 67.30299,56.37674 9.2969,1.45765 24.90741,0.38548 34.78668,-2.38925 z m 212.13204,0 c 25.86512,-7.26454 47.93434,-28.22822 56.83484,-53.98749 2.73721,-7.9219 3.26923,-12.3386 3.26923,-27.13938 0,-14.80078 -0.53202,-19.21748 -3.26923,-27.13938 -8.20612,-23.749693 -28.13918,-43.829998 -51.74424,-52.126496 -45.50147,-15.992507 -95.77761,10.455422 -108.33936,56.992256 -4.03065,14.93233 -3.43386,36.45029 1.39144,50.16585 10.13496,28.80823 36.73349,50.86729 67.07063,55.62389 9.2969,1.45765 24.90742,0.38548 34.78669,-2.38925 z M -1899.8492,26.194737 c 29.7003,-7.735947 54.6606,-33.8077938 60.888,-63.599461 8.9682,-42.903563 -16.1271,-85.591396 -57.9856,-98.634946 -11.4733,-3.5752 -33.9254,-4.18456 -44.5478,-1.20906 -14.5433,4.07383 -27.1031,11.516 -38.137,22.59764 -12.8399,12.89555 -19.9092,26.106003 -23.4599,43.840246 -8.3734,41.820917 17.9713,84.575718 59.4756,96.523009 10.9092,3.140275 32.643,3.379913 43.7667,0.482572 z m 204.9308,-0.08033 c 27.2048,-7.0186 49.9531,-28.5592224 58.7801,-55.659571 14.3802,-44.149438 -10.9483,-92.534608 -55.7476,-106.494528 -13.7549,-4.28618 -34.3283,-4.28618 -48.0832,0 -36.7864,11.46304 -62.3213,48.008519 -59.5992,85.298211 2.6661,36.522814 26.6352,66.557656 61.0134,76.453629 11.0254,3.173736 32.1395,3.368374 43.6365,0.402259 z m 205.0609,0 c 30.1212,-7.771004 54.4799,-33.6934116 61.0163,-64.933361 2.6584,-12.70586 2.6388,-19.489498 -0.096,-32.940086 -6.343,-31.202002 -30.3337,-56.780872 -61.4236,-65.489692 -10.6224,-2.9755 -33.0745,-2.36614 -44.5478,1.20906 -41.7831,13.02008 -67.0199,55.86104 -57.9962,98.452371 6.3169,29.8159492 30.9172,55.81157 60.2926,63.7124 10.3231,2.776525 31.9718,2.771109 42.7543,-0.01131 l 0,6.22e-4 z m 223.7063,0.08994 c 15.3882,-3.9286 25.9032,-10.116025 38.188,-22.4711179 18.5202,-18.6261821 25.5918,-37.2086941 24.2661,-63.7653341 -0.8706,-17.439531 -4.4342,-28.271335 -14.0121,-42.591561 -11.9983,-17.93893 -31.1448,-30.58639 -53.4979,-35.33878 -27.1246,-5.76684 -59.7284,5.38357 -78.5177,26.85279 -7.5057,8.57624 -16.75,26.85245 -18.8964,37.358578 -2.1864,10.701824 -1.8906,29.394272 0.6208,39.231244 7.3887,28.9412305 30.816,52.842571 59.5192,60.723616 9.5721,2.628216 32.0365,2.628513 42.33,5.65e-4 z m 326.68338,0 c 15.50377,-3.958129 25.90631,-10.085266 38.12734,-22.4571737 18.52447,-18.7531653 25.64281,-37.4158903 24.32669,-63.7792783 -0.87062,-17.439531 -4.43415,-28.271335 -14.0121,-42.591561 -11.99829,-17.93893 -31.14474,-30.58639 -53.49786,-35.33878 -27.1246,-5.76684 -59.72845,5.38357 -78.51775,26.85279 -7.5057,8.57624 -16.75,26.85245 -18.8964,37.358578 -2.1864,10.701824 -1.8905,29.394272 0.6208,39.231244 7.3888,28.9412305 30.816,52.842571 59.51926,60.723616 9.57208,2.628216 32.03651,2.628513 42.33002,5.65e-4 z m 249.2366,-1.368506 c 25.30967,-7.995327 45.34055,-27.6116288 54.1692,-53.048141 4.30854,-12.41357 5.30867,-34.133764 2.153,-46.75443 -11.55667,-46.218436 -59.60476,-74.580276 -103.94294,-61.355456 -26.50778,7.90652 -47.79013,27.83597 -56.64773,53.046688 -4.88993,13.917807 -5.56941,35.521539 -1.57775,50.163161 7.61062,27.9161227 31.25918,51.716191 58.93855,59.316119 3.80504,1.04475 13.40846,1.956451 21.34094,2.026002 11.68365,0.102389 16.53905,-0.542111 25.56673,-3.393943 z m 220.61733,0 c 14.04187,-4.435822 25.53249,-11.85671 36.3781,-23.4937076 37.44088,-40.1729424 25.49516,-107.0886994 -23.42249,-131.2031494 -18.35946,-9.05053 -34.34913,-11.69624 -51.6246,-8.54201 -41.35853,7.55131 -69.9098,41.579684 -69.9098,83.320626 0,23.962364 7.2634,41.256881 24.7015,58.8155867 17.67809,17.8003103 33.09118,24.2754423 58.31057,24.4965543 11.68367,0.10239 16.53909,-0.54211 25.56672,-3.393942 l 0,4.2e-5 z m 212.13203,0 c 34.91411,-11.029381 58.29841,-43.096843 58.29841,-79.9462 0,-41.711725 -28.56386,-75.743607 -69.90981,-83.292667 -17.14423,-3.13027 -33.35126,-0.49604 -51.00545,8.29027 -14.45029,7.19176 -22.86288,14.53392 -31.57133,27.55421 -9.7073,14.513495 -13.12022,25.065685 -13.9836,43.233548 -0.81034,17.054185 1.29655,27.600188 8.4215,42.152997 5.19879,10.6188771 19.36836,26.3881644 29.6521,33.000009 19.63282,12.622676 47.37149,16.187173 70.09818,9.007833 z"
       id="path4176"
       inkscape:connector-curvature="0" />
    <path
       style="fill:#502d16;fill-opacity:1;stroke:none;stroke-opacity:1"
       d="m -2111.643,799.97157 c -12.4258,-6.74218 -11.5252,33.96294 -11.5252,-520.86922 0,-556.55155 -0.968,-514.29395 11.9346,-520.96614 5.2214,-2.70012 117.5436,-3.03386 1021.0654,-3.03386 903.52189,0 1015.844034,0.33374 1021.065434,3.03386 12.9026,6.67219 11.9346,-35.58541 11.9346,520.96614 0,556.55156 0.968,514.29396 -11.9346,520.96614 -5.222,2.70044 -117.482244,3.02506 -1021.466034,2.95378 -894.3983,-0.0705 -1016.2527,-0.43458 -1021.0742,-3.0507 z m 2006.47483,-520.86922 0,-476 -985.00003,0 -985,0 0,476 0,476 985,0 985.00003,0 0,-476 z"
       id="path4178"
       inkscape:connector-curvature="0" />
    <path
       style="fill:#ffb380;fill-opacity:1;stroke:none;stroke-opacity:1"
       d="m -513.30947,652.49465 c -20.7968,-5.89642 -38.05503,-20.82056 -47.58837,-41.15227 -4.47363,-9.54092 -5.27033,-13.96737 -5.27033,-29.28208 0,-16.31335 0.62279,-19.30712 6.49987,-31.24516 28.35009,-57.58721 110.1345,-53.90089 132.59767,5.97665 6.12722,16.33263 5.03044,40.97777 -2.50659,56.32401 -15.07758,30.69969 -52.4134,48.25854 -83.73225,39.37885 z"
       id="path4180"
       inkscape:connector-curvature="0" />
    <path
       style="fill:#ffb380;fill-opacity:1;stroke:none;stroke-opacity:1"
       d="m -301.30947,652.36762 c -20.54553,-5.53967 -38.05924,-20.64797 -47.55691,-41.02524 -4.42212,-9.48765 -5.24378,-14.05287 -5.27033,-29.28208 -0.0285,-16.3471 0.57917,-19.28242 6.46841,-31.24516 7.71569,-15.67278 20.28437,-27.96703 36.14984,-35.36052 9.65658,-4.50007 14.03628,-5.28404 29.35029,-5.2537 15.7038,0.0311 19.51493,0.76991 29.87553,5.79144 29.13036,14.11879 45.04668,43.83559 40.91781,76.3962 -5.33708,42.08867 -48.79494,71.07151 -89.93464,59.97906 z"
       id="path4182"
       inkscape:connector-curvature="0" />
    <path
       style="fill:#ffb380;fill-opacity:1;stroke:none;stroke-opacity:1"
       d="m -303.81303,433.29533 c -20.84782,-6.89222 -36.52002,-21.05568 -45.75728,-41.35229 -3.55803,-7.81789 -4.49089,-13.54931 -4.53824,-27.88274 -0.0541,-16.37711 0.5402,-19.26046 6.44025,-31.24516 7.70591,-15.65293 20.25857,-27.94243 36.14984,-35.39197 9.65521,-4.52619 14.03846,-5.32082 29.35029,-5.32082 15.84039,0 19.42668,0.70049 29.89106,5.83843 55.53084,27.26524 55.41012,105.42129 -0.20323,131.57309 -16.48095,7.75006 -35.16503,9.12643 -51.33269,3.78146 z"
       id="path4184"
       inkscape:connector-curvature="0" />
    <path
       style="fill:#ffb380;fill-opacity:1;stroke:none;stroke-opacity:1"
       d="m -513.30947,434.49465 c -20.7968,-5.89642 -38.05503,-20.82056 -47.58837,-41.15227 -4.47363,-9.54092 -5.27033,-13.96737 -5.27033,-29.28208 0,-16.31335 0.62279,-19.30712 6.49987,-31.24516 7.70591,-15.65293 20.25857,-27.94243 36.14984,-35.39197 9.72099,-4.55703 13.93415,-5.30901 29.35029,-5.23854 15.63764,0.0715 19.56171,0.83717 29.89941,5.83419 14.70956,7.11028 28.12658,20.5992 34.89655,35.08353 7.32401,15.66971 8.28624,40.35765 2.20483,56.56916 -6.01099,16.02379 -22.17671,33.16845 -37.94827,40.2463 -14.45458,6.48683 -34.68202,8.40778 -48.19382,4.57684 z"
       id="path4186"
       inkscape:connector-curvature="0" />
    <path
       style="fill:#ffb380;fill-opacity:1;stroke:none;stroke-opacity:1"
       d="m -731.67632,435.05656 c -20.33863,-5.13354 -41.37048,-22.55185 -50.1333,-41.51975 -3.55853,-7.70275 -4.35855,-13.10549 -4.35855,-29.43446 0,-17.85394 0.60061,-21.22305 5.59728,-31.39816 7.04752,-14.35142 20.84497,-28.06551 35.253,-35.04003 9.51671,-4.60676 13.78605,-5.40931 29.14972,-5.47953 15.6242,-0.0714 19.58387,0.65673 30,5.51674 15.62085,7.28844 29.28478,20.88773 36.35218,36.1802 4.87658,10.55197 5.64782,14.68453 5.64782,30.26284 0,16.31334 -0.62278,19.30712 -6.49986,31.24515 -11.88636,24.14462 -34.01429,39.19233 -59.91925,40.74702 -7.46949,0.44829 -16.95956,-0.0377 -21.08904,-1.08002 z"
       id="path4188"
       inkscape:connector-curvature="0" />
    <path
       style="fill:#ffb380;fill-opacity:1;stroke:none;stroke-opacity:1"
       d="m -731.67632,653.05656 c -20.43222,-5.15717 -41.62962,-22.76907 -49.97249,-41.51975 -5.72507,-12.86716 -7.00927,-36.28567 -2.78638,-50.81193 6.32535,-21.75843 25.36489,-40.90599 47.71474,-47.98543 33.84945,-10.72201 71.71347,6.24583 86.79324,38.89428 4.99834,10.82167 5.75904,14.85177 5.75904,30.51068 0,16.31334 -0.62278,19.30712 -6.49986,31.24515 -11.88636,24.14462 -34.01429,39.19233 -59.91925,40.74702 -7.46949,0.44829 -16.95956,-0.0377 -21.08904,-1.08002 z"
       id="path4190"
       inkscape:connector-curvature="0" />
    <path
       style="fill:#ffb380;fill-opacity:1;stroke:none;stroke-opacity:1"
       d="m -981.35029,651.30958 c -21.35781,-6.83332 -35.12421,-19.28064 -44.56141,-40.29161 -16.1681,-35.99654 0.018,-78.61624 36.27195,-95.50782 9.76022,-4.54752 14.15688,-5.34489 29.47158,-5.34489 15.3147,0 19.71137,0.79737 29.47158,5.34489 6.30937,2.93969 15.79786,9.67553 21.08554,14.96855 18.50452,18.5232 25.77089,43.46676 19.75915,67.82801 -6.41873,26.01051 -23.93757,44.87273 -49.02694,52.78644 -15.47383,4.88076 -27.69819,4.94306 -42.47145,0.21643 z"
       id="path4192"
       inkscape:connector-curvature="0" />
    <path
       style="fill:#ffb380;fill-opacity:1;stroke:none;stroke-opacity:1"
       d="m -1033.1682,364.10235 0,-73 73.00003,0 73,0 0,73 0,73 -73,0 -73.00003,0 0,-73 z"
       id="path4194"
       inkscape:connector-curvature="0" />
    <path
       style="fill:#ffb380;fill-opacity:1;stroke:none;stroke-opacity:1"
       d="m -977.16817,216.35467 c -22.23468,-6.12124 -38.50113,-19.49475 -47.90963,-39.38916 -17.6654,-37.35348 -2.0636,-79.892846 35.81837,-97.66093 9.37846,-4.398856 13.87746,-5.202226 29.13332,-5.202226 16.36175,0 19.28799,0.613371 31.42015,6.586014 25.96048,12.780306 40.21666,35.965452 40.22201,65.413982 0.006,33.9793 -21.10814,61.51979 -53.60441,69.91902 -14.05336,3.63234 -22.79475,3.71539 -35.07981,0.3333 z"
       id="path4196"
       inkscape:connector-curvature="0" />
    <path
       style="fill:#ffb380;fill-opacity:1;stroke:none;stroke-opacity:1"
       d="m -981.4798,14.431294 c -52.8368,-19.7141477 -68.0959,-82.450792 -29.4531,-121.093644 35.97388,-35.97385 94.34158,-25.07278 116.53497,21.764704 5.34072,11.271172 6.14336,15.127788 6.03549,29 -0.22633,29.105852 -13.6709,51.4280543 -39.18055,65.0519863 -10.9941,5.8716157 -14.82145,6.8242657 -29.62518,7.3738777 -10.92769,0.405708 -19.61167,-0.343302 -24.31163,-2.096924 z"
       id="path4198"
       inkscape:connector-curvature="0" />
    <path
       style="fill:#ffb380;fill-opacity:1;stroke:none;stroke-opacity:1"
       d="m -738.56849,13.496254 c -21.34896,-7.6191797 -36.662,-22.7158357 -44.72076,-44.088822 -3.48978,-9.255392 -4.1072,-14.387292 -3.40538,-28.305078 1.07471,-21.3127 6.20119,-32.82482 21.45279,-48.174744 25.05244,-25.21395 64.45052,-27.86508 93.07367,-6.263 43.39304,32.749012 36.51062,99.791312 -12.71685,123.876068 -14.50063,7.094502 -38.39943,8.410264 -53.68347,2.955576 z"
       id="path4200"
       inkscape:connector-curvature="0" />
    <path
       style="fill:#ffb380;fill-opacity:1;stroke:none;stroke-opacity:1"
       d="m -733.30947,216.49154 c -20.08908,-5.68892 -39.99246,-22.52174 -48.52377,-41.03785 -3.49677,-7.58928 -4.31111,-13.1199 -4.32178,-29.35134 -0.0118,-17.90207 0.57813,-21.20408 5.62361,-31.47886 7.19951,-14.661296 20.30105,-27.741718 34.88726,-34.831017 10.09696,-4.907402 13.75914,-5.57743 30.47598,-5.575846 16.91334,0.0016 20.20807,0.621866 30,5.647781 14.76997,7.580996 27.02376,19.708546 34.59435,34.237942 5.69928,10.93802 6.2594,13.68459 6.32914,31.03511 0.0705,17.5483 -0.43597,20.07666 -6.48463,32.36964 -11.85275,24.08889 -33.87316,38.70544 -61.30685,40.6938 -6.75078,0.48929 -16.18669,-0.26891 -21.27331,-1.70936 z"
       id="path4202"
       inkscape:connector-curvature="0" />
    <path
       style="fill:#ffb380;fill-opacity:1;stroke:none;stroke-opacity:1"
       d="m -513.11968,216.02016 c -21.99929,-6.16081 -37.96855,-19.75686 -47.77816,-40.67778 -4.47078,-9.53484 -5.27033,-13.97075 -5.27033,-29.24003 0,-15.53216 0.77433,-19.67549 5.64783,-30.22078 7.06739,-15.29247 20.73133,-28.891757 36.35217,-36.180202 10.34837,-4.828388 14.47745,-5.599014 30,-5.599014 15.84039,0 19.42668,0.700487 29.89106,5.838423 25.67902,12.608215 39.54874,34.107033 40.74798,63.161573 0.92853,22.49599 -3.84193,35.67067 -18.74456,51.76729 -18.60655,20.0973 -45.7116,28.1893 -70.84599,21.15052 z"
       id="path4204"
       inkscape:connector-curvature="0" />
    <path
       style="fill:#ffb380;fill-opacity:1;stroke:none;stroke-opacity:1"
       d="m -516.51982,14.339992 c -18.51397,-6.0475057 -35.20433,-21.2944717 -44.04685,-40.237638 -4.84947,-10.388942 -5.59525,-14.416588 -5.55496,-30 0.0394,-15.233476 0.8657,-19.763134 5.37634,-29.47158 21.79561,-46.911654 83.32605,-57.007764 118.46765,-19.438544 14.775,15.795666 18.10947,24.985554 18.10947,49.910124 0,20.125636 -0.28561,21.526784 -6.85968,33.652026 -12.87696,23.7503423 -33.84592,36.684006 -61.14032,37.711388 -9.72955,0.366226 -19.27303,-0.466872 -24.35165,-2.125776 z"
       id="path4206"
       inkscape:connector-curvature="0" />
    <path
       style="fill:#ffb380;fill-opacity:1;stroke:none;stroke-opacity:1"
       d="m -304.51982,14.319378 c -35.90685,-11.6401877 -57.9912,-52.48074 -47.76597,-88.333538 9.29488,-32.59071 36.59312,-53.73434 69.10211,-53.52247 21.76613,0.14186 35.71866,5.99209 51.19054,21.46396 14.90508,14.905084 20.99648,29.109414 21.05969,49.108368 0.0529,16.725732 -1.27719,22.265708 -8.78777,36.60334 -12.05401,23.0109643 -33.3948,36.032948 -60.44695,36.884252 -9.41258,0.296204 -19.43848,-0.611176 -24.35165,-2.203912 z"
       id="path4208"
       inkscape:connector-curvature="0" />
    <path
       style="fill:#ffb380;fill-opacity:1;stroke:none;stroke-opacity:1"
       d="m -301.10235,216.02459 c -21.33728,-5.97623 -39.02527,-21.33356 -48.46796,-42.08155 -3.55803,-7.81789 -4.49089,-13.54931 -4.53824,-27.88274 -0.0541,-16.37711 0.5402,-19.26046 6.44025,-31.24516 7.70591,-15.652934 20.25857,-27.942428 36.14984,-35.391972 9.65521,-4.526188 14.03846,-5.320814 29.35029,-5.320814 15.84039,0 19.42668,0.700487 29.89106,5.838423 14.34428,7.042939 27.15493,19.392151 33.70046,32.486573 6.35632,12.71592 7.6936,18.79442 7.6432,34.74166 -0.14582,46.14045 -46.06762,81.20766 -90.1689,68.85558 z m 44.43825,-21.77574 c 18.86184,-6.73113 31.83789,-24.96233 32.0266,-44.99703 0.48044,-51.005034 -70.27459,-50.517434 -80.9878,0.55812 -6.49055,30.9439 19.83114,54.8344 48.9612,44.43891 z"
       id="path4210"
       inkscape:connector-curvature="0" />
    <path
       style="fill:#ffb380;fill-opacity:1;stroke:none;stroke-opacity:1"
       d="m -1308.5198,14.339992 c -45.0033,-14.70010573 -64.3013,-69.304986 -38.5655,-109.123274 18.5235,-28.659388 54.6044,-40.452628 86.4105,-28.243728 15.1165,5.80256 31.6869,21.02362 38.9182,35.74919 5.0406,10.264482 5.5884,13.438976 5.5884,32.380174 0,20.125636 -0.2856,21.526784 -6.8596,33.652026 -12.877,23.7503423 -33.846,36.684006 -61.1404,37.711388 -9.7295,0.366226 -19.273,-0.466872 -24.3516,-2.125776 z"
       id="path4212"
       inkscape:connector-curvature="0" />
    <path
       style="fill:#ffb380;fill-opacity:1;stroke:none;stroke-opacity:1"
       d="m -1359.1682,146.10235 0,-72.999996 72,0 72,0 0,72.999996 0,73 -72,0 -72,0 0,-73 z"
       id="path4214"
       inkscape:connector-curvature="0" />
    <path
       style="fill:#ffb380;fill-opacity:1;stroke:none;stroke-opacity:1"
       d="m -1305.6163,434.27089 c -20.9877,-6.05905 -37.7251,-20.54744 -47.2815,-40.92851 -4.4737,-9.54092 -5.2704,-13.96737 -5.2704,-29.28208 0,-16.31335 0.6228,-19.30712 6.4999,-31.24516 7.7059,-15.65293 20.2586,-27.94243 36.1498,-35.39197 9.721,-4.55703 13.9342,-5.30901 29.3503,-5.23854 15.6295,0.0714 19.564,0.8383 29.8756,5.82289 25.5796,12.36516 39.5629,34.00899 40.7635,63.09483 0.9285,22.49599 -3.842,35.67067 -18.7446,51.76729 -18.3846,19.85754 -46.9783,28.43506 -71.3426,21.40125 z"
       id="path4216"
       inkscape:connector-curvature="0" />
    <path
       style="fill:#ffb380;fill-opacity:1;stroke:none;stroke-opacity:1"
       d="m -1305.3095,652.49465 c -20.7968,-5.89642 -38.055,-20.82056 -47.5883,-41.15227 -4.4737,-9.54092 -5.2704,-13.96737 -5.2704,-29.28208 0,-16.31335 0.6228,-19.30712 6.4999,-31.24516 28.3501,-57.58721 110.1345,-53.90089 132.5977,5.97665 6.1272,16.33263 5.0304,40.97777 -2.5066,56.32401 -15.0776,30.69969 -52.4134,48.25854 -83.7323,39.37885 z"
       id="path4218"
       inkscape:connector-curvature="0" />
    <path
       style="fill:#ffb380;fill-opacity:1;stroke:none;stroke-opacity:1"
       d="m -1529.3095,652.49465 c -20.7968,-5.89642 -38.055,-20.82056 -47.5883,-41.15227 -4.4708,-9.53484 -5.2704,-13.97075 -5.2704,-29.24003 0,-15.53216 0.7744,-19.67549 5.6479,-30.22078 23.4091,-50.65281 90.7231,-57.15145 124.1606,-11.98674 9.9185,13.39702 13.8939,28.04199 12.7686,47.03757 -1.1321,19.11085 -6.2522,30.89389 -19.5205,44.92315 -17.7434,18.76103 -46.7462,27.28824 -70.1979,20.6391 z"
       id="path4220"
       inkscape:connector-curvature="0" />
    <path
       style="fill:#ffb380;fill-opacity:1;stroke:none;stroke-opacity:1"
       d="m -1529.3095,434.49465 c -20.7968,-5.89642 -38.055,-20.82056 -47.5883,-41.15227 -4.5617,-9.72872 -5.2601,-13.79472 -5.1939,-30.24003 0.07,-17.31113 0.6323,-20.06665 6.3292,-31 7.9778,-15.311 20.3801,-27.29664 35.5943,-34.3985 10.4182,-4.86312 14.3727,-5.59065 30,-5.51922 15.335,0.0701 19.64,0.87625 29.0765,5.44487 14.0856,6.81945 28.5229,21.22336 35.4884,35.40619 4.8134,9.80068 5.4351,13.35459 5.4351,31.06666 0,24.13234 -3.5632,33.4909 -18.9434,49.7532 -17.7434,18.76103 -46.7462,27.28824 -70.1979,20.6391 z"
       id="path4222"
       inkscape:connector-curvature="0" />
    <path
       style="fill:#ffb380;fill-opacity:1;stroke:none;stroke-opacity:1"
       d=""
       id="path4224"
       inkscape:connector-curvature="0" />
    <path
       style="fill:#ffb380;fill-opacity:1;stroke:none;stroke-opacity:1"
       d="m -1528.4012,216.40176 c -21.301,-5.42541 -38.6923,-20.14964 -48.4966,-41.05938 -4.5352,-9.67211 -5.2704,-13.89041 -5.2704,-30.24003 0,-16.89441 0.6239,-20.21902 5.6294,-30 7.3985,-14.45685 21.0758,-28.193043 35.0738,-35.224633 10.0412,-5.043994 13.4087,-5.674092 30.2968,-5.668821 16.7078,0.0052 20.3845,0.678837 30.476,5.583577 14.5862,7.089299 27.6878,20.169721 34.8873,34.831017 5.0413,10.26626 5.6367,13.59163 5.6367,31.47886 0,17.79117 -0.6101,21.24237 -5.5243,31.24908 -6.748,13.74082 -21.9484,28.35739 -36.3437,34.94778 -13.101,5.99783 -32.2659,7.69362 -46.365,4.10255 z"
       id="path4226"
       inkscape:connector-curvature="0" />
    <path
       style="fill:#ffb380;fill-opacity:1;stroke:none;stroke-opacity:1"
       d="m -1534.3297,13.57708 c -41.3428,-14.7725697 -60.4578,-61.925268 -41.0692,-101.30914 26.6255,-54.08401 100.9502,-53.42212 129.5841,1.153988 5.0461,9.617876 5.6057,12.67014 5.6251,30.680426 0.019,17.521784 -0.6402,21.411714 -5.3188,31.392996 -6.8482,14.6097423 -20.8064,28.5206743 -35.2667,35.14722 -15.1249,6.931132 -38.7471,8.225502 -53.5545,2.93451 z"
       id="path4228"
       inkscape:connector-curvature="0" />
    <path
       style="fill:#ffb380;fill-opacity:1;stroke:none;stroke-opacity:1"
       d="m -1741.7078,12.380658 c -29.7774,-12.55124773 -46.218,-36.931562 -46.0425,-68.278304 0.106,-18.928648 6.0192,-33.87341 19.0398,-48.119984 40.5819,-44.40311 111.0041,-24.21498 123.8091,35.49273 6.4716,30.17612 -10.7753,64.3290603 -39.7116,78.638326 -16.6668,8.24183 -40.6598,9.194594 -57.0948,2.267232 z"
       id="path4232"
       inkscape:connector-curvature="0" />
    <path
       style="fill:#ffb380;fill-opacity:1;stroke:none;stroke-opacity:1"
       d="m -1731.6763,217.05342 c -28.4706,-7.17415 -50.1307,-30.30414 -55.3229,-59.07707 -5.7735,-31.99395 11.2751,-64.037572 41.831,-78.623223 9.3517,-4.463936 13.6974,-5.250773 29,-5.250773 15.3119,0 19.6951,0.794626 29.3503,5.320814 32.6934,15.326088 49.4746,49.743552 40.815,83.709912 -6.0248,23.63161 -23.5614,43.43117 -45.1653,50.99348 -11.3851,3.98531 -30.7539,5.38477 -40.5081,2.92686 z"
       id="path4234"
       inkscape:connector-curvature="0" />
    <path
       style="fill:#ffb380;fill-opacity:1;stroke:none;stroke-opacity:1"
       d="m -1733.1682,434.47859 c -37.8749,-10.94851 -60.4789,-45.49852 -53.8452,-82.30199 4.4497,-24.68709 19.2807,-44.10139 41.8452,-54.77694 9.2797,-4.39034 13.8206,-5.21151 29.0353,-5.25077 16.3885,-0.0423 19.2529,0.55255 31.3697,6.51461 39.9225,19.64384 53.1331,68.72842 28.5099,105.92996 -16.1422,24.38811 -50.1799,37.6134 -76.9149,29.88513 z"
       id="path4236"
       inkscape:connector-curvature="0" />
    <path
       style="fill:#ffb380;fill-opacity:1;stroke:none;stroke-opacity:1"
       d="m -1735.1024,651.90061 c -45.2215,-12.15305 -66.1684,-62.88413 -43.5405,-105.45028 7.1646,-13.4777 17.7221,-23.22495 33.4002,-30.83689 9.4649,-4.59535 13.6969,-5.38662 29.1166,-5.44397 16.4192,-0.0611 19.2408,0.52303 31.3696,6.49403 31.197,15.3582 47.2073,49.40869 38.7513,82.41555 -6.5257,25.47236 -24.2804,44.5013 -48.5015,51.98245 -15.2371,4.70624 -25.4226,4.91677 -40.5957,0.83911 z"
       id="path4238"
       inkscape:connector-curvature="0" />
    <path
       style="fill:#ffb380;fill-opacity:1;stroke:none;stroke-opacity:1"
       d="m -1939.3095,652.49465 c -20.7968,-5.89642 -38.055,-20.82056 -47.5883,-41.15227 -4.4737,-9.54092 -5.2704,-13.96737 -5.2704,-29.28208 0,-16.31335 0.6228,-19.30712 6.4999,-31.24516 24.699,-50.17081 91.5738,-55.75945 123.8582,-10.35067 9.9578,14.00586 13.2719,26.29743 12.2333,45.37205 -1.1036,20.26798 -5.9271,31.63081 -19.5348,46.01903 -17.7434,18.76103 -46.7462,27.28824 -70.1979,20.6391 z"
       id="path4240"
       inkscape:connector-curvature="0" />
    <path
       style="fill:#ffb380;fill-opacity:1;stroke:none;stroke-opacity:1"
       d="m -1939.3095,434.49465 c -20.7968,-5.89642 -38.055,-20.82056 -47.5883,-41.15227 -4.4708,-9.53484 -5.2704,-13.97075 -5.2704,-29.24003 0,-15.53216 0.7744,-19.67549 5.6479,-30.22078 7.0674,-15.29247 20.7313,-28.89176 36.3521,-36.1802 10.4162,-4.86001 14.3758,-5.58816 30,-5.51674 15.4872,0.0708 19.6021,0.85728 29.476,5.63388 14.5701,7.04841 27.6795,20.1269 34.8873,34.80498 5.0455,10.27478 5.6354,13.57679 5.6236,31.47886 -0.016,24.14547 -3.5862,33.529 -18.9303,49.7532 -17.7434,18.76103 -46.7462,27.28824 -70.1979,20.6391 z"
       id="path4244"
       inkscape:connector-curvature="0" />
    <path
       style="fill:#ffb380;fill-opacity:1;stroke:none;stroke-opacity:1"
       d="m -1939.1197,216.02016 c -21.9993,-6.16081 -37.9685,-19.75686 -47.7781,-40.67778 -4.4708,-9.53484 -5.2704,-13.97075 -5.2704,-29.24003 0,-15.53216 0.7744,-19.67549 5.6479,-30.22078 7.0674,-15.29247 20.7313,-28.891757 36.3521,-36.180202 10.3484,-4.828388 14.4775,-5.599014 30,-5.599014 15.8404,0 19.4267,0.700487 29.8911,5.838423 15.1441,7.435651 27.9672,20.258783 34.7686,34.768583 4.6759,9.97544 5.3387,13.88146 5.3272,31.39299 -0.016,24.14547 -3.5862,33.529 -18.9303,49.7532 -18.1263,19.1658 -45.4607,27.03901 -70.0081,20.16461 z"
       id="path4246"
       inkscape:connector-curvature="0" />
    <path
       style="fill:#ffb380;fill-opacity:1;stroke:none;stroke-opacity:1"
       d="m -1944.5033,13.518338 c -27.2346,-9.7228477 -45.904,-34.27711 -48.0957,-63.256004 -1.9291,-25.507504 8.239,-48.139252 28.598,-63.652384 13.094,-9.97732 26.5616,-14.32416 43.8328,-14.14761 27.2198,0.27826 51.7147,15.55199 64.0806,39.957328 5.3858,10.629464 5.9194,13.485732 5.9194,31.682686 0,17.495418 -0.6687,21.426734 -5.3403,31.392996 -6.8482,14.6097423 -20.8064,28.5206743 -35.2667,35.14722 -15.2043,6.967502 -38.7383,8.227152 -53.7281,2.875768 z"
       id="path4250"
       inkscape:connector-curvature="0" />
    <path
       style="fill:none;fill-opacity:1;stroke:#000000;stroke-width:20;stroke-linecap:round;stroke-linejoin:round;stroke-miterlimit:4;stroke-dasharray:none;stroke-opacity:1"
       d="M 147,134.80664 A 142.04083,138.55627 0 0 0 34.171875,189.47656 l -111.058594,0 0,163.77149 108.046875,0 A 142.04083,138.55627 0 0 0 147,411.91797 142.04083,138.55627 0 0 0 289.04102,273.36133 142.04083,138.55627 0 0 0 147,134.80664 Z"
       id="rect4252"
       inkscape:connector-curvature="0" />
  </g>
</svg>
